<svg width="800" height="500" viewBox="0 0 800 500" xmlns="http://www.w3.org/2000/svg">
  <rect width="800" height="500" rx="32" fill="#f2fff7"/>
  <rect x="78" y="90" width="644" height="320" rx="28" fill="#ffffff" stroke="#dff7e8" stroke-width="3"/>
  <rect x="120" y="132" width="248" height="224" rx="24" fill="#22c55e"/>
  <path d="M198 204h74" stroke="#ffffff" stroke-width="16" stroke-linecap="round"/>
  <path d="M198 246h48" stroke="#ffffff" stroke-width="16" stroke-linecap="round"/>
  <circle cx="198" cy="174" r="36" fill="#ffffff" opacity="0.95"/>
  <path d="M182 172l12 12 24-28" stroke="#22c55e" stroke-width="12" stroke-linecap="round" stroke-linejoin="round"/>
  <rect x="410" y="144" width="220" height="28" rx="14" fill="#5b6ff5"/>
  <rect x="410" y="198" width="210" height="18" rx="9" fill="#cbd5e1"/>
  <rect x="410" y="230" width="190" height="18" rx="9" fill="#cbd5e1"/>
  <rect x="410" y="262" width="168" height="18" rx="9" fill="#cbd5e1"/>
  <rect x="410" y="294" width="145" height="18" rx="9" fill="#cbd5e1"/>
  <circle cx="650" cy="346" r="44" fill="#f5a623"/>
  <path d="M632 346l14 14 26-32" stroke="#ffffff" stroke-width="12" stroke-linecap="round" stroke-linejoin="round"/>
</svg>