<svg width="800" height="500" viewBox="0 0 800 500" xmlns="http://www.w3.org/2000/svg">
  <rect width="800" height="500" rx="32" fill="#f4f8ff"/>
  <rect x="78" y="90" width="644" height="320" rx="28" fill="#ffffff" stroke="#dce8ff" stroke-width="3"/>
  <circle cx="220" cy="220" r="70" fill="#5b6ff5"/>
  <circle cx="220" cy="194" r="24" fill="#ffffff"/>
  <path d="M180 270c10-24 48-24 58 0" stroke="#ffffff" stroke-width="16" stroke-linecap="round"/>
  <circle cx="320" cy="208" r="42" fill="#0ea5e9"/>
  <circle cx="320" cy="191" r="16" fill="#ffffff"/>
  <path d="M296 232c6-12 24-12 30 0" stroke="#ffffff" stroke-width="10" stroke-linecap="round"/>
  <rect x="392" y="154" width="220" height="24" rx="12" fill="#f5a623"/>
  <rect x="392" y="204" width="188" height="18" rx="9" fill="#cbd5e1"/>
  <rect x="392" y="236" width="208" height="18" rx="9" fill="#cbd5e1"/>
  <rect x="392" y="268" width="176" height="18" rx="9" fill="#cbd5e1"/>
  <rect x="620" y="150" width="56" height="142" rx="18" fill="#22c55e"/>
  <rect x="620" y="312" width="56" height="58" rx="18" fill="#0ea5e9"/>
</svg>