<svg width="800" height="500" viewBox="0 0 800 500" xmlns="http://www.w3.org/2000/svg">
  <rect width="800" height="500" rx="32" fill="#f7f2ff"/>
  <rect x="78" y="90" width="644" height="320" rx="28" fill="#ffffff" stroke="#e8dcff" stroke-width="3"/>
  <rect x="124" y="132" width="232" height="224" rx="24" fill="#7c3aed"/>
  <path d="M188 204h72" stroke="#ffffff" stroke-width="16" stroke-linecap="round"/>
  <path d="M188 244h42" stroke="#ffffff" stroke-width="16" stroke-linecap="round"/>
  <circle cx="200" cy="190" r="38" fill="#ffffff" opacity="0.95"/>
  <path d="M180 188l14 14 28-34" stroke="#7c3aed" stroke-width="12" stroke-linecap="round" stroke-linejoin="round"/>
  <rect x="396" y="144" width="250" height="28" rx="14" fill="#f5a623"/>
  <rect x="396" y="196" width="210" height="18" rx="9" fill="#cbd5e1"/>
  <rect x="396" y="228" width="230" height="18" rx="9" fill="#cbd5e1"/>
  <rect x="396" y="260" width="188" height="18" rx="9" fill="#cbd5e1"/>
  <rect x="396" y="292" width="164" height="18" rx="9" fill="#cbd5e1"/>
  <circle cx="650" cy="346" r="44" fill="#0ea5e9"/>
  <path d="M630 346h40" stroke="#ffffff" stroke-width="12" stroke-linecap="round"/>
  <path d="M650 326v40" stroke="#ffffff" stroke-width="12" stroke-linecap="round"/>
</svg>